<?xml version="1.0" encoding="UTF-8"?>
<svg width="100px" height="100px" viewBox="0 0 100 100" version="1.1" xmlns="http://www.w3.org/2000/svg" xmlns:xlink="http://www.w3.org/1999/xlink">
    <title>arrow-right</title>
    <g id="Page-1" stroke="none" stroke-width="1" fill="none" fill-rule="evenodd">
        <g id="Artboard" fill="#FFFFFF" fill-rule="nonzero">
            <g id="arrow-right">
                <path d="M48.3178571,0.996651786 L46.7395089,2.57477679 C45.6935268,3.62075893 45.6935268,5.31674107 46.7395089,6.36294643 L86.5819196,46.2053571 L2.67857143,46.2053571 C1.19933036,46.2053571 0,47.4046875 0,48.8839286 L0,51.1160714 C0,52.5953125 1.19933036,53.7946429 2.67857143,53.7946429 L86.5819196,53.7946429 L46.7395089,93.6370536 C45.6935268,94.6830357 45.6935268,96.3790179 46.7395089,97.4252232 L48.3178571,99.0033482 C49.3638393,100.04933 51.0598214,100.04933 52.1058036,99.0033482 L99.2154018,51.8939732 C100.261384,50.8479911 100.261384,49.1520089 99.2154018,48.1058036 L52.1058036,0.996651786 C51.0598214,-0.0495535714 49.3638393,-0.0495535714 48.3178571,0.996651786 Z" id="Path"></path>
            </g>
        </g>
    </g>
</svg>